<?xml version="1.0" encoding="UTF-8" standalone="no"?><!DOCTYPE svg PUBLIC "-//W3C//DTD SVG 1.1//EN" "http://www.w3.org/Graphics/SVG/1.1/DTD/svg11.dtd"><svg width="100%" height="100%" viewBox="0 0 834 834" version="1.1" xmlns="http://www.w3.org/2000/svg" xmlns:xlink="http://www.w3.org/1999/xlink" xml:space="preserve" xmlns:serif="http://www.serif.com/" style="fill-rule:evenodd;clip-rule:evenodd;stroke-linejoin:round;stroke-miterlimit:1.5;"><g><path d="M416.667,41.667c206.968,-0 375,168.032 375,375c-0,206.968 -168.032,375 -375,375c-206.968,-0 -375,-168.032 -375,-375c-0,-206.968 168.032,-375 375,-375Zm-0,41.666c183.971,0 333.333,149.362 333.333,333.334c0,183.971 -149.362,333.333 -333.333,333.333c-183.972,0 -333.334,-149.362 -333.334,-333.333c0,-183.972 149.362,-333.334 333.334,-333.334Z" style="fill:#c67f3e;"/><path d="M416.667,768.684l-0,-419.926" style="fill:none;stroke:#c67f3e;stroke-width:41.67px;"/><path d="M148.993,302.615c80.814,31.337 78.431,148.115 154.633,192.11c42.566,24.576 97.077,9.97 121.652,-32.597c24.576,-42.566 9.97,-97.077 -32.597,-121.652c-76.201,-43.995 -181.649,-40.344 -243.688,-37.861Zm100.024,41.417c41.867,2.911 86.133,11.341 122.831,32.528c22.651,13.078 30.423,42.084 17.346,64.735c-13.078,22.651 -42.084,30.423 -64.735,17.346c-16.486,-9.518 -27.306,-24.284 -36.741,-40.169c-12.794,-21.54 -22.886,-45.338 -34.662,-67.157c-1.323,-2.452 -2.668,-4.881 -4.037,-7.282l-0.002,-0.001Z" style="fill:#c67f3e;"/><path d="M549.281,201.129c-0,0 -113.162,26.657 -154.945,68.44c-23.872,23.871 -23.872,62.633 0,86.505c23.872,23.872 62.634,23.872 86.506,-0c41.782,-41.782 68.439,-154.945 68.439,-154.945Zm-61.939,61.939c-9.292,24.311 -21.412,48.992 -35.963,63.543c-7.611,7.611 -19.969,7.611 -27.58,0c-7.611,-7.611 -7.611,-19.969 -0,-27.58c14.551,-14.55 39.232,-26.671 63.543,-35.963Z" style="fill:#c67f3e;"/><path d="M702.472,416.285c-52.507,-5.366 -168.797,-17.497 -249.443,21.376c-44.276,21.342 -62.895,74.616 -41.553,118.892c21.342,44.276 74.616,62.895 118.892,41.553c80.645,-38.873 101.904,-160.253 172.104,-181.821Zm-99.662,35.042c-0.884,1.289 -1.764,2.588 -2.64,3.897c-25.072,37.441 -46.101,85.203 -87.894,105.348c-23.561,11.357 -51.909,1.449 -63.266,-22.111c-11.357,-23.561 -1.449,-51.909 22.112,-63.266c39.207,-18.899 87.721,-23.98 131.689,-23.869l-0.001,0.001Z" style="fill:#c67f3e;"/></g></svg>