<?xml version="1.0" encoding="UTF-8" standalone="no"?><!DOCTYPE svg PUBLIC "-//W3C//DTD SVG 1.1//EN" "http://www.w3.org/Graphics/SVG/1.1/DTD/svg11.dtd"><svg width="100%" height="100%" viewBox="0 0 4267 1067" version="1.1" xmlns="http://www.w3.org/2000/svg" xmlns:xlink="http://www.w3.org/1999/xlink" xml:space="preserve" xmlns:serif="http://www.serif.com/" style="fill-rule:evenodd;clip-rule:evenodd;stroke-linejoin:round;stroke-miterlimit:2;"><rect id="Artboard1" x="0" y="0" width="4266.67" height="1066.67" style="fill:none;"/><clipPath id="_clip1"><rect id="Artboard11" serif:id="Artboard1" x="0" y="0" width="4266.67" height="1066.67"/></clipPath><g clip-path="url(#_clip1)"><g><path d="M39.971,907.568c-11.495,-0 -21.031,-3.788 -28.607,-11.364c-7.576,-7.576 -11.364,-17.112 -11.364,-28.607l0,-357.384c0.522,-41.277 10.189,-78.374 28.998,-111.291c18.81,-32.917 44.412,-58.911 76.807,-77.982c32.394,-19.07 68.968,-28.606 109.723,-28.606c41.277,0 78.112,9.536 110.507,28.606c32.394,19.071 58.127,45.065 77.198,77.982c19.071,32.917 28.606,70.014 28.606,111.291c0,41.277 -8.751,78.243 -26.255,110.899c-17.503,32.656 -41.407,58.519 -71.712,77.59c-30.304,19.071 -64.528,28.606 -102.669,28.606c-30.827,0 -59.173,-6.4 -85.036,-19.201c-25.863,-12.801 -47.939,-30.174 -66.226,-52.119l0,211.609c0,11.495 -3.657,21.031 -10.972,28.607c-7.315,7.576 -16.981,11.364 -28.998,11.364Zm175.557,-250.796c26.647,-0 50.42,-6.401 71.32,-19.202c20.9,-12.801 37.489,-30.304 49.767,-52.51c12.279,-22.206 18.418,-47.155 18.418,-74.847c0,-28.214 -6.139,-53.425 -18.418,-75.631c-12.278,-22.205 -28.867,-39.709 -49.767,-52.51c-20.9,-12.801 -44.673,-19.202 -71.32,-19.202c-26.125,0 -49.768,6.401 -70.928,19.202c-21.161,12.801 -37.75,30.305 -49.768,52.51c-12.017,22.206 -18.026,47.417 -18.026,75.631c0,27.692 6.009,52.641 18.026,74.847c12.018,22.206 28.607,39.709 49.768,52.51c21.16,12.801 44.803,19.202 70.928,19.202Z" style="fill:#1f998a;fill-rule:nonzero;stroke:#1f998a;stroke-width:8.33px;"/><path d="M589.371,456.135c-0,-31.349 7.706,-59.433 23.12,-84.252c15.413,-24.818 36.182,-44.542 62.307,-59.172c26.125,-14.63 54.862,-21.944 86.211,-21.944c31.35,-0 54.731,5.094 70.145,15.282c15.413,10.189 21.291,22.337 17.634,36.444c-1.568,7.315 -4.572,12.932 -9.013,16.851c-4.442,3.918 -9.536,6.4 -15.283,7.445c-5.748,1.045 -12.018,0.784 -18.81,-0.784c-33.439,-6.792 -63.483,-7.314 -90.13,-1.567c-26.647,5.747 -47.677,16.458 -63.091,32.133c-15.413,15.675 -23.12,35.53 -23.12,59.564l-39.97,0Zm0.783,268.038c-12.54,0 -22.206,-3.265 -28.998,-9.796c-6.792,-6.531 -10.189,-16.328 -10.189,-29.39l0,-350.331c0,-12.54 3.397,-22.206 10.189,-28.998c6.792,-6.793 16.458,-10.189 28.998,-10.189c13.063,0 22.859,3.266 29.39,9.797c6.532,6.531 9.797,16.328 9.797,29.39l0,350.331c0,12.539 -3.265,22.205 -9.797,28.998c-6.531,6.792 -16.327,10.188 -29.39,10.188Z" style="fill:#1f998a;fill-rule:nonzero;stroke:#1f998a;stroke-width:8.33px;"/><path d="M1469.51,907.568c-11.495,-0 -21.031,-3.788 -28.607,-11.364c-7.576,-7.576 -11.364,-17.112 -11.364,-28.607l0,-357.384c0.523,-41.277 10.189,-78.374 28.998,-111.291c18.81,-32.917 44.412,-58.911 76.807,-77.982c32.394,-19.07 68.969,-28.606 109.723,-28.606c41.277,0 78.112,9.536 110.507,28.606c32.394,19.071 58.127,45.065 77.198,77.982c19.071,32.917 28.606,70.014 28.606,111.291c0,41.277 -8.751,78.243 -26.255,110.899c-17.503,32.656 -41.407,58.519 -71.712,77.59c-30.304,19.071 -64.527,28.606 -102.669,28.606c-30.827,0 -59.173,-6.4 -85.036,-19.201c-25.863,-12.801 -47.938,-30.174 -66.226,-52.119l0,211.609c0,11.495 -3.657,21.031 -10.972,28.607c-7.315,7.576 -16.981,11.364 -28.998,11.364Zm175.557,-250.796c26.647,-0 50.42,-6.401 71.32,-19.202c20.9,-12.801 37.489,-30.304 49.767,-52.51c12.279,-22.206 18.418,-47.155 18.418,-74.847c0,-28.214 -6.139,-53.425 -18.418,-75.631c-12.278,-22.205 -28.867,-39.709 -49.767,-52.51c-20.9,-12.801 -44.673,-19.202 -71.32,-19.202c-26.125,0 -49.767,6.401 -70.928,19.202c-21.161,12.801 -37.75,30.305 -49.768,52.51c-12.017,22.206 -18.026,47.417 -18.026,75.631c0,27.692 6.009,52.641 18.026,74.847c12.018,22.206 28.607,39.709 49.768,52.51c21.161,12.801 44.803,19.202 70.928,19.202Z" style="fill:#1f998a;fill-rule:nonzero;stroke:#1f998a;stroke-width:8.33px;"/><path d="M2159.2,727.308c-38.142,0 -72.365,-9.535 -102.67,-28.606c-30.304,-19.071 -54.208,-44.934 -71.712,-77.59c-17.503,-32.656 -26.255,-69.622 -26.255,-110.899c-0,-41.277 9.535,-78.374 28.606,-111.291c19.071,-32.917 44.935,-58.911 77.59,-77.982c32.656,-19.07 69.361,-28.606 110.115,-28.606c40.755,0 77.329,9.536 109.724,28.606c32.394,19.071 58.127,45.065 77.198,77.982c19.071,32.917 28.606,70.014 28.606,111.291l-30.566,0c0,41.277 -8.751,78.243 -26.255,110.899c-17.503,32.656 -41.407,58.519 -71.712,77.59c-30.304,19.071 -64.527,28.606 -102.669,28.606Zm15.674,-70.536c26.647,-0 50.421,-6.401 71.321,-19.202c20.899,-12.801 37.358,-30.304 49.375,-52.51c12.017,-22.206 18.026,-47.155 18.026,-74.847c-0,-28.214 -6.009,-53.425 -18.026,-75.631c-12.017,-22.205 -28.476,-39.709 -49.375,-52.51c-20.9,-12.801 -44.674,-19.202 -71.321,-19.202c-26.124,0 -49.767,6.401 -70.928,19.202c-21.161,12.801 -37.88,30.305 -50.159,52.51c-12.279,22.206 -18.418,47.417 -18.418,75.631c0,27.692 6.139,52.641 18.418,74.847c12.279,22.206 28.998,39.709 50.159,52.51c21.161,12.801 44.804,19.202 70.928,19.202Zm175.558,68.185c-11.495,0 -21.031,-3.788 -28.607,-11.364c-7.576,-7.576 -11.364,-17.112 -11.364,-28.606l-0,-119.912l14.891,-83.076l65.05,28.214l0,174.774c0,11.494 -3.788,21.03 -11.364,28.606c-7.576,7.576 -17.112,11.364 -28.606,11.364Z" style="fill:#1f998a;fill-rule:nonzero;stroke:#1f998a;stroke-width:8.33px;"/><path d="M2688.22,727.308c-39.186,0 -73.801,-9.274 -103.845,-27.822c-30.043,-18.549 -53.686,-44.151 -70.928,-76.807c-17.242,-32.655 -25.863,-70.144 -25.863,-112.466c-0,-42.844 9.274,-80.594 27.822,-113.25c18.549,-32.656 44.02,-58.258 76.415,-76.806c32.394,-18.549 69.752,-27.823 112.074,-27.823c41.8,0 78.896,9.274 111.291,27.823c32.394,18.548 57.866,44.15 76.414,76.806c18.549,32.656 27.823,70.406 27.823,113.25l-46.241,0c0,42.322 -7.968,79.811 -23.904,112.466c-15.936,32.656 -37.75,58.258 -65.442,76.807c-27.692,18.548 -59.564,27.822 -95.616,27.822Zm14.108,174.774c-37.097,-0 -71.843,-7.315 -104.237,-21.945c-32.395,-14.63 -59.826,-36.052 -82.293,-64.266c-6.792,-8.883 -9.274,-18.026 -7.445,-27.431c1.828,-9.405 6.923,-16.981 15.283,-22.729c9.404,-6.269 19.201,-8.359 29.39,-6.269c10.188,2.09 18.418,7.314 24.687,15.674c14.108,17.765 31.872,31.611 53.295,41.538c21.422,9.928 45.718,14.891 72.887,14.891c25.08,0 48.2,-6.008 69.361,-18.026c21.161,-12.017 38.011,-29.782 50.551,-53.294c12.54,-23.512 18.81,-52.249 18.81,-86.211l-0,-111.291l25.863,-68.968l50.943,16.458l-0,169.287c-0,41.277 -9.144,78.766 -27.431,112.467c-18.287,33.7 -43.758,60.478 -76.414,80.333c-32.656,19.854 -70.406,29.782 -113.25,29.782Zm1.567,-245.31c27.17,-0 51.204,-6.27 72.104,-18.81c20.9,-12.54 37.228,-29.782 48.984,-51.726c11.756,-21.945 17.634,-47.286 17.634,-76.023c-0,-28.737 -5.878,-54.208 -17.634,-76.414c-11.756,-22.206 -28.084,-39.579 -48.984,-52.119c-20.9,-12.54 -44.934,-18.81 -72.104,-18.81c-27.169,0 -51.204,6.27 -72.104,18.81c-20.899,12.54 -37.358,29.913 -49.375,52.119c-12.017,22.206 -18.026,47.677 -18.026,76.414c-0,28.737 6.009,54.078 18.026,76.023c12.017,21.944 28.476,39.186 49.375,51.726c20.9,12.54 44.935,18.81 72.104,18.81Z" style="fill:#1f998a;fill-rule:nonzero;stroke:#1f998a;stroke-width:8.33px;"/><path d="M3217.24,727.308c-38.142,0 -72.365,-9.535 -102.669,-28.606c-30.305,-19.071 -54.209,-44.934 -71.712,-77.59c-17.504,-32.656 -26.256,-69.622 -26.256,-110.899c0,-41.277 9.536,-78.374 28.607,-111.291c19.071,-32.917 44.934,-58.911 77.59,-77.982c32.656,-19.07 69.361,-28.606 110.115,-28.606c40.754,0 77.329,9.536 109.723,28.606c32.395,19.071 58.127,45.065 77.198,77.982c19.071,32.917 28.607,70.014 28.607,111.291l-30.566,0c0,41.277 -8.752,78.243 -26.255,110.899c-17.504,32.656 -41.408,58.519 -71.712,77.59c-30.305,19.071 -64.528,28.606 -102.67,28.606Zm15.675,-70.536c26.647,-0 50.42,-6.401 71.32,-19.202c20.9,-12.801 37.358,-30.304 49.376,-52.51c12.017,-22.206 18.026,-47.155 18.026,-74.847c-0,-28.214 -6.009,-53.425 -18.026,-75.631c-12.018,-22.205 -28.476,-39.709 -49.376,-52.51c-20.9,-12.801 -44.673,-19.202 -71.32,-19.202c-26.125,0 -49.767,6.401 -70.928,19.202c-21.161,12.801 -37.881,30.305 -50.159,52.51c-12.279,22.206 -18.418,47.417 -18.418,75.631c-0,27.692 6.139,52.641 18.418,74.847c12.278,22.206 28.998,39.709 50.159,52.51c21.161,12.801 44.803,19.202 70.928,19.202Zm175.557,68.185c-11.495,0 -21.03,-3.788 -28.606,-11.364c-7.576,-7.576 -11.364,-17.112 -11.364,-28.606l-0,-119.912l14.891,-83.076l65.05,28.214l-0,174.774c-0,11.494 -3.788,21.03 -11.364,28.606c-7.577,7.576 -17.112,11.364 -28.607,11.364Z" style="fill:#1f998a;fill-rule:nonzero;stroke:#1f998a;stroke-width:8.33px;"/><path d="M3723.54,724.173c-26.125,0 -49.637,-6.661 -70.537,-19.985c-20.899,-13.323 -37.358,-31.48 -49.375,-54.47c-12.018,-22.989 -18.026,-48.853 -18.026,-77.59l-0,-373.842c-0,-11.495 3.657,-20.9 10.972,-28.215c7.315,-7.315 16.72,-10.972 28.215,-10.972c11.495,-0 20.899,3.657 28.214,10.972c7.315,7.315 10.973,16.72 10.973,28.215l-0,373.842c-0,20.9 5.747,38.403 17.242,52.511c11.495,14.107 25.602,21.161 42.322,21.161l26.647,-0c9.405,-0 17.373,3.657 23.904,10.972c6.531,7.315 9.796,16.72 9.796,28.215c0,11.494 -4.31,20.899 -12.931,28.214c-8.621,7.315 -19.724,10.972 -33.309,10.972l-14.107,0Zm-173.99,-345.628c-10.972,0 -19.855,-3.135 -26.647,-9.405c-6.793,-6.27 -10.189,-14.107 -10.189,-23.512c0,-10.45 3.396,-18.809 10.189,-25.079c6.792,-6.27 15.675,-9.405 26.647,-9.405l181.043,-0c10.973,-0 19.855,3.135 26.647,9.405c6.793,6.27 10.189,14.629 10.189,25.079c-0,9.405 -3.396,17.242 -10.189,23.512c-6.792,6.27 -15.674,9.405 -26.647,9.405l-181.043,0Z" style="fill:#1f998a;fill-rule:nonzero;stroke:#1f998a;stroke-width:8.33px;"/><path d="M4083.27,727.308c-43.367,0 -81.9,-9.274 -115.601,-27.822c-33.701,-18.549 -60.087,-44.151 -79.158,-76.807c-19.071,-32.655 -28.606,-70.144 -28.606,-112.466c-0,-42.844 9.013,-80.594 27.039,-113.25c18.026,-32.656 42.975,-58.258 74.847,-76.806c31.872,-18.549 68.446,-27.823 109.723,-27.823c40.754,0 75.761,9.013 105.021,27.039c29.259,18.026 51.596,42.844 67.009,74.455c15.414,31.611 23.121,68.055 23.121,109.331c-0,9.928 -3.397,18.157 -10.189,24.688c-6.792,6.531 -15.413,9.797 -25.863,9.797l-315.846,-0l-0,-62.699l313.495,-0l-32.134,21.945c-0.522,-26.125 -5.747,-49.507 -15.674,-70.145c-9.928,-20.638 -24.035,-36.966 -42.322,-48.984c-18.287,-12.017 -40.493,-18.026 -66.618,-18.026c-29.782,0 -55.253,6.532 -76.414,19.594c-21.161,13.062 -37.228,30.958 -48.2,53.686c-10.973,22.728 -16.459,48.461 -16.459,77.198c0,28.737 6.531,54.339 19.594,76.806c13.062,22.467 31.088,40.232 54.078,53.294c22.989,13.063 49.375,19.594 79.157,19.594c16.197,-0 32.786,-3.004 49.767,-9.013c16.981,-6.009 30.697,-12.932 41.147,-20.769c7.837,-5.747 16.328,-8.752 25.471,-9.013c9.144,-0.261 17.112,2.482 23.904,8.229c8.882,7.838 13.585,16.459 14.107,25.864c0.523,9.404 -3.657,17.503 -12.539,24.295c-17.765,14.108 -39.84,25.602 -66.226,34.485c-26.386,8.882 -51.596,13.323 -75.631,13.323Z" style="fill:#1f998a;fill-rule:nonzero;stroke:#1f998a;stroke-width:8.33px;"/></g><g><path d="M1114.69,286.807c123.085,0 223.014,99.929 223.014,223.014c0,123.085 -99.929,223.014 -223.014,223.014c-123.084,0 -223.013,-99.929 -223.013,-223.014c-0,-123.085 99.929,-223.014 223.013,-223.014Zm0,41.667c100.089,-0 181.348,81.259 181.348,181.347c-0,100.088 -81.259,181.347 -181.348,181.347c-100.088,0 -181.347,-81.259 -181.347,-181.347c0,-100.088 81.259,-181.347 181.347,-181.347Z" style="fill:#c67f3e;"/><path d="M1114.69,719.167l0,-249.732" style="fill:none;stroke:#c67f3e;stroke-width:29.17px;stroke-linecap:square;stroke-linejoin:bevel;stroke-miterlimit:1.5;"/><path d="M955.502,441.994c48.06,18.637 46.643,88.085 91.96,114.249c25.315,14.615 57.733,5.929 72.348,-19.386c14.615,-25.314 5.929,-57.732 -19.386,-72.347c-45.317,-26.164 -108.027,-23.992 -144.922,-22.516Zm67.189,29.622c6.38,12.153 12.037,25.175 19.083,37.039c5.227,8.8 11.139,17.056 20.272,22.329c11.373,6.566 25.938,2.664 32.505,-8.71c6.566,-11.373 2.663,-25.938 -8.71,-32.505c-18.933,-10.931 -41.325,-15.994 -63.15,-18.153Z" style="fill:#c67f3e;"/><path d="M1193.56,381.64c-0,0 -67.298,15.853 -92.147,40.701c-14.196,14.197 -14.196,37.249 0,51.445c14.197,14.197 37.249,14.197 51.446,0c24.848,-24.848 40.701,-92.146 40.701,-92.146Zm-46.001,46.001c-9.981,4.317 -19.489,9.291 -25.522,15.324c-2.814,2.814 -2.814,7.384 0,10.198c2.814,2.814 7.384,2.814 10.198,-0c6.033,-6.033 11.006,-15.541 15.324,-25.522Z" style="fill:#c67f3e;"/><path d="M1284.66,509.594c-31.226,-3.191 -100.385,-10.405 -148.345,12.713c-26.331,12.692 -37.404,44.374 -24.711,70.705c12.692,26.331 44.374,37.404 70.705,24.712c47.96,-23.118 60.603,-95.303 102.351,-108.13Zm-67.471,25.252c-23.244,0.543 -47.871,3.931 -68.209,13.734c-11.83,5.703 -16.805,19.937 -11.103,31.767c5.703,11.831 19.937,16.806 31.768,11.103c10.233,-4.933 17.871,-13.382 24.821,-22.515c8.282,-10.884 15.454,-22.901 22.723,-34.089Z" style="fill:#c67f3e;"/></g></g></svg>